PathFileType	4	(X/Y/Z)	C:\Users\ebm\Documents\Erivelton\Erivelton2\wc8.trc
DataRate	CameraRate	NumFrames	NumMarkers	Units	OrigDataRate	OrigDataStartFrame	OrigNumFrames
150.00	150.00	      5	28	mm	150.00	574	      1146
Frame#	Time	IJ			PX			C7			T8			RAC			RAS			RPS			RAI			RPI			RLE			RME			RRS			RUS			R3M			R5M			LAC			LAS			LPS			LAI			LPI			LLE			LME			LRS			LUS			L3M			L5M			RW			LW			V_mid_elbow_r			V_mid_elbow_l			V_mid_wrist_r			V_mid_wrist_l			V_mid_trunk_low			V_mid_trunk_upp			
		X1	Y1	Z1	X2	Y2	Z2	X3	Y3	Z3	X4	Y4	Z4	X5	Y5	Z5	X6	Y6	Z6	X7	Y7	Z7	X8	Y8	Z8	X9	Y9	Z9	X10	Y10	Z10	X11	Y11	Z11	X12	Y12	Z12	X13	Y13	Z13	X14	Y14	Z14	X15	Y15	Z15	X16	Y16	Z16	X17	Y17	Z17	X18	Y18	Z18	X19	Y19	Z19	X20	Y20	Z20	X21	Y21	Z21	X22	Y22	Z22	X23	Y23	Z23	X24	Y24	Z24	X25	Y25	Z25	X26	Y26	Z26	X27	Y27	Z27	X28	Y28	Z28	

574	3.820	652.24011	1033.00330	-118.58089	656.29163	868.63037	-88.66171	529.30627	1137.98230	-135.53606	443.90576	990.90924	-119.08056	582.26538	1087.97559	80.68253	646.10663	902.38049	129.11024	601.33569	896.18628	150.78322	672.46216	830.54510	145.54253	625.77191	820.82269	169.56123	662.33173	758.63300	170.56728	619.09674	730.52905	107.32626	868.72583	740.62958	-13.83284	878.50244	715.11804	43.25436	951.78259	711.38214	-9.50387	943.08978	690.42444	23.81227	568.97278	1064.84204	-311.44260	611.06512	894.96149	-371.24136	566.62451	875.36548	-368.69781	649.02704	824.54425	-379.97171	599.89410	798.53632	-375.95944	677.41992	736.97156	-382.75342	633.66058	708.12640	-326.34756	891.40564	726.61938	-216.32951	905.13135	696.64246	-271.79764	977.75891	698.93420	-234.79271	958.60925	683.61890	-269.07416	558.05322	303.00732	218.18842	586.27716	301.48318	-410.49271	
575	3.827	660.86969	1032.94360	-118.33481	664.80054	868.52454	-88.37395	538.05518	1138.00305	-135.33090	452.63275	990.87683	-118.95391	590.80164	1087.96130	80.96822	654.68988	902.43939	129.37711	609.81909	896.13019	151.11211	680.95703	830.52869	145.99879	634.27148	820.98218	170.05556	670.97394	758.67633	170.96625	627.67358	730.53821	107.72736	877.24200	740.51111	-13.53789	887.10718	715.10205	43.61374	960.30109	711.36139	-9.10354	951.67419	690.48004	24.22672	577.78998	1064.87378	-311.16580	619.85297	895.06445	-371.07767	575.63464	875.37415	-368.62558	657.89380	824.59302	-379.74561	608.77625	798.76654	-375.95029	686.30872	737.11011	-382.66440	642.38190	708.22876	-326.36880	899.91583	726.64429	-215.78520	913.83710	696.66248	-271.32059	986.23767	698.99994	-234.28720	967.26221	683.80823	-268.60577	566.74890	302.99448	218.47989	595.02618	301.46146	-410.16516	
576	3.833	669.53503	1032.79578	-117.97144	673.20581	868.39661	-88.11467	546.91620	1137.99390	-135.08762	461.30344	990.93604	-118.77303	599.30914	1087.90503	81.20990	663.16132	902.42218	129.82642	618.27478	896.12915	151.46173	689.46356	830.53149	146.44133	642.75098	820.92090	170.46848	679.52240	758.66858	171.39014	636.29248	730.49316	108.15726	885.23462	739.94617	-13.28896	895.64587	715.12811	43.99265	968.81726	711.37250	-8.63891	960.29144	690.56055	24.73217	586.54956	1064.95593	-310.92169	628.75635	895.19763	-370.93701	584.31995	875.60480	-368.57098	666.65149	824.80884	-379.77081	617.58612	798.81384	-375.92599	695.13318	737.22833	-382.58029	651.28143	708.15253	-326.31345	908.53949	726.67352	-215.43524	922.47150	696.78113	-270.88425	995.81116	698.96704	-233.86740	975.84918	683.92517	-268.11713	575.32733	302.96661	218.80182	603.77478	301.34476	-409.77530	
577	3.840	678.22943	1032.63025	-117.71353	681.78064	868.37274	-87.90178	555.67810	1138.03528	-134.85309	470.01740	990.96851	-118.58624	607.93164	1087.83545	81.45081	671.52710	902.44592	130.43117	626.70380	896.08429	151.81480	697.92731	830.62653	146.83315	651.14850	820.88214	170.75034	688.03528	758.63556	171.78093	644.75427	730.46332	108.61111	894.23322	740.35693	-12.80827	904.16223	715.11993	44.47684	977.30225	711.43555	-8.22331	968.76196	690.64722	25.22549	595.43640	1064.94897	-310.59372	637.64984	895.30182	-370.77057	593.19006	875.73438	-368.53143	675.58643	824.99023	-379.48102	626.39270	798.98035	-375.83426	703.98120	737.36011	-382.46762	660.03345	708.22180	-326.26550	917.10956	726.73499	-214.91606	931.14111	696.87189	-270.45316	1004.23450	699.09760	-233.34042	984.42578	684.03583	-267.56854	583.88885	302.96085	219.16695	612.51294	301.22321	-409.40018	
578	3.847	686.89453	1032.52490	-117.38855	690.25012	868.13989	-87.54510	564.53772	1138.01404	-134.61186	478.64166	990.97113	-118.43642	616.41827	1087.76868	81.72546	680.11200	902.27081	130.66299	635.25354	896.10291	152.26355	706.45178	830.54175	147.29535	659.62354	820.82880	171.15590	696.52594	758.60577	172.23521	653.30664	730.36749	109.07986	902.31494	739.93671	-12.35489	912.60968	715.14648	44.93711	985.87567	711.50067	-7.76751	977.30780	690.71942	25.80673	604.23444	1065.02258	-310.33670	646.43005	895.44403	-370.57999	602.08630	875.88068	-368.44418	684.28589	824.93158	-379.33246	635.21094	799.12579	-375.82059	712.73956	737.43732	-382.35052	668.79987	708.22272	-326.22906	925.61591	726.69708	-214.53404	939.74713	696.95410	-270.05875	1012.90686	699.16125	-232.80058	993.13788	684.08881	-267.25183	592.54974	302.90491	219.51497	621.18970	301.21860	-409.07996	
